HIERARCHY
ROOT Hips
{
	OFFSET 0.00000 0.00000 0.00000
	CHANNELS 6 Xposition Yposition Zposition Zrotation Yrotation Xrotation 
	JOINT LHipJoint
	{
		OFFSET 0 0 0
		CHANNELS 3 Zrotation Yrotation Xrotation
		JOINT LeftUpLeg
		{
			OFFSET 1.57358 -1.76629 0.73362
			CHANNELS 3 Zrotation Yrotation Xrotation
			JOINT LeftLeg
			{
				OFFSET 2.40600 -6.61045 0.00000
				CHANNELS 3 Zrotation Yrotation Xrotation
				JOINT LeftFoot
				{
					OFFSET 2.66168 -7.31291 0.00000
					CHANNELS 3 Zrotation Yrotation Xrotation
					JOINT LeftToeBase
					{
						OFFSET 0.20870 -0.57341 2.12506
						CHANNELS 3 Zrotation Yrotation Xrotation
						End Site
						{
							OFFSET 0.00000 -0.00000 1.10557
						}
					}
				}
			}
		}
	}
	JOINT RHipJoint
	{
		OFFSET 0 0 0
		CHANNELS 3 Zrotation Yrotation Xrotation
		JOINT RightUpLeg
		{
			OFFSET -1.49299 -1.76629 0.73362
			CHANNELS 3 Zrotation Yrotation Xrotation
			JOINT RightLeg
			{
				OFFSET -2.43663 -6.69460 0.00000
				CHANNELS 3 Zrotation Yrotation Xrotation
				JOINT RightFoot
				{
					OFFSET -2.62959 -7.22474 0.00000
					CHANNELS 3 Zrotation Yrotation Xrotation
					JOINT RightToeBase
					{
						OFFSET -0.25784 -0.70841 2.21862
						CHANNELS 3 Zrotation Yrotation Xrotation
						End Site
						{
							OFFSET -0.00000 -0.00000 1.16452
						}
					}
				}
			}
		}
	}
	JOINT LowerBack
	{
		OFFSET 0 0 0
		CHANNELS 3 Zrotation Yrotation Xrotation
		JOINT Spine
		{
			OFFSET -0.00034 2.12399 -0.25450
			CHANNELS 3 Zrotation Yrotation Xrotation
			JOINT Spine1
			{
				OFFSET 0.05594 2.14379 -0.03318
				CHANNELS 3 Zrotation Yrotation Xrotation
				JOINT Neck
				{
					OFFSET 0 0 0
					CHANNELS 3 Zrotation Yrotation Xrotation
					JOINT Neck1
					{
						OFFSET -0.09835 1.62725 0.24211
						CHANNELS 3 Zrotation Yrotation Xrotation
						JOINT Head
						{
							OFFSET 0.10849 1.66041 -0.22648
							CHANNELS 3 Zrotation Yrotation Xrotation
							End Site
							{
								OFFSET 0.04385 1.68267 -0.10541
							}
						}
					}
				}
				JOINT LeftShoulder
				{
					OFFSET 0 0 0
					CHANNELS 3 Zrotation Yrotation Xrotation
					JOINT LeftArm
					{
						OFFSET 3.29108 0.79398 -0.68179
						CHANNELS 3 Zrotation Yrotation Xrotation
						JOINT LeftForeArm
						{
							OFFSET 5.15310 -0.00000 -0.00000
							CHANNELS 3 Zrotation Yrotation Xrotation
							JOINT LeftHand
							{
								OFFSET 3.75138 -0.00000 -0.00000
								CHANNELS 3 Zrotation Yrotation Xrotation
								JOINT LeftFingerBase
								{
									OFFSET 0 0 0
									CHANNELS 3 Zrotation Yrotation Xrotation
									JOINT LeftHandIndex1
									{
										OFFSET 0.52917 -0.00000 0.00000
										CHANNELS 3 Zrotation Yrotation Xrotation
										End Site
										{
											OFFSET 0.42663 -0.00000 0.00000
										}
									}
								}
								JOINT LThumb
								{
									OFFSET 0 0 0
									CHANNELS 3 Zrotation Yrotation Xrotation
									End Site
									{
										OFFSET 0.43315 -0.00000 0.43315
									}
								}
							}
						}
					}
				}
				JOINT RightShoulder
				{
					OFFSET 0 0 0
					CHANNELS 3 Zrotation Yrotation Xrotation
					JOINT RightArm
					{
						OFFSET -3.07414 1.06285 -0.44338
						CHANNELS 3 Zrotation Yrotation Xrotation
						JOINT RightForeArm
						{
							OFFSET -5.29613 -0.00000 0.00000
							CHANNELS 3 Zrotation Yrotation Xrotation
							JOINT RightHand
							{
								OFFSET -3.76144 -0.00000 -0.00000
								CHANNELS 3 Zrotation Yrotation Xrotation
								JOINT RightFingerBase
								{
									OFFSET 0 0 0
									CHANNELS 3 Zrotation Yrotation Xrotation
									JOINT RightHandIndex1
									{
										OFFSET -0.74732 -0.00000 0.00000
										CHANNELS 3 Zrotation Yrotation Xrotation
										End Site
										{
											OFFSET -0.60251 -0.00000 0.00000
										}
									}
								}
								JOINT RThumb
								{
									OFFSET 0 0 0
									CHANNELS 3 Zrotation Yrotation Xrotation
									End Site
									{
										OFFSET -0.61171 -0.00000 0.61171
									}
								}
							}
						}
					}
				}
			}
		}
	}
}
MOTION
Frames: 8
Frame Time: .0083333
-8.341500 17.407700 4.514800 2.785000 3.640800 -0.357100 0.000000 0.000000 0.000000 -29.278800 -5.151800 -3.583500 1.856500 8.560600 24.430100 0.193200 -14.203000 -12.097300 0.251900 3.229100 8.917200 0.000000 0.000000 0.000000 10.907700 11.333500 -23.823800 -2.875900 -10.491400 30.583200 0.004700 -5.719700 -8.023600 -0.050200 1.445900 -3.976600 -5.511200 -0.961800 6.397800 1.571000 -1.641000 -0.292300 4.891200 -0.694800 -3.696400 -9.124200 -3.689900 -17.947200 4.007000 -3.534300 22.928900 2.449600 -1.941800 10.581800 -0.000000 0.000000 0.000000 -89.026900 -0.993400 22.448000 19.344300 -29.844200 -5.201100 -0.000000 -0.000000 4.867400 19.155600 24.990900 8.348800 -7.125000 0.000000 -0.000000 -11.303300 55.885000 -3.046500 -0.000000 0.000000 0.000000 87.539600 -1.542400 6.621600 -14.279800 23.133300 -2.937200 0.000000 0.000000 9.734600 -14.880900 13.356600 -3.512700 7.125000 -0.000000 -0.000000 8.573700 -16.276800 5.894100
-8.340200 17.409500 4.631600 2.703700 3.833200 -0.234400 0.000000 0.000000 0.000000 -29.174800 -4.871100 -3.154100 1.809900 8.458400 24.115400 0.187900 -14.500100 -12.214300 0.224300 3.048500 8.413800 0.000000 0.000000 0.000000 10.686800 11.943700 -23.542700 -2.495800 -9.830200 28.428600 0.021000 -5.320300 -6.892400 -0.076700 1.786600 -4.916200 -5.511000 -0.966600 6.278100 1.602800 -1.639500 -0.281000 4.920400 -0.696800 -3.616500 -9.126700 -3.697400 -18.035400 4.021700 -3.537200 22.867000 2.453500 -1.939500 10.576500 -0.000000 0.000000 0.000000 -88.926800 -1.262200 22.514500 19.452200 -29.976700 -5.254900 -0.000000 -0.000000 4.794200 19.078700 23.968100 7.997700 -7.125000 0.000000 -0.000000 -10.914100 54.839700 -2.661300 -0.000000 0.000000 0.000000 87.488300 -1.311100 6.047200 -13.944200 22.654900 -2.806600 0.000000 0.000000 10.415900 -14.984000 14.093300 -3.728900 7.125000 -0.000000 -0.000000 8.503800 -15.518600 5.985800
-8.339900 17.408700 4.743600 2.446700 4.072600 -0.138200 0.000000 0.000000 0.000000 -28.873700 -4.703900 -2.691600 1.767000 8.362800 23.821500 0.180100 -14.790400 -12.304400 0.207400 2.932400 8.090600 0.000000 0.000000 0.000000 10.654100 12.566000 -23.181200 -2.151600 -9.175000 26.344400 0.036400 -4.939400 -5.631200 -0.089000 1.923600 -5.294700 -5.373600 -0.989000 6.204600 1.713400 -1.650100 -0.231100 4.956200 -0.708100 -3.522200 -9.067000 -3.794500 -18.605400 3.866900 -3.599200 23.226500 2.376700 -1.980600 10.818600 0.000000 -0.000000 0.000000 -88.974100 -1.516400 22.374400 19.631900 -30.196400 -5.345000 -0.000000 -0.000000 4.764800 19.019900 24.727800 8.205300 -7.125000 0.000000 -0.000000 -11.320100 55.593100 -2.970500 0.000000 -0.000000 0.000000 87.384000 -1.175800 5.820600 -14.016500 22.758200 -2.834500 0.000000 0.000000 11.614400 -14.233700 12.946100 -3.252600 7.125000 -0.000000 -0.000000 9.021000 -16.742100 6.116900
-8.335900 17.407600 4.857000 2.358000 4.312400 -0.061700 0.000000 0.000000 0.000000 -28.779900 -4.652100 -2.188400 1.726700 8.272100 23.543500 0.172600 -15.011900 -12.360700 0.239000 3.146100 8.685800 0.000000 0.000000 0.000000 10.431200 12.966200 -22.828200 -1.843100 -8.531200 24.339500 0.040600 -4.332100 -4.190100 -0.071700 1.727500 -4.753000 -5.302400 -0.981300 6.227000 1.722300 -1.635800 -0.245500 4.924900 -0.700800 -3.553100 -9.270500 -3.823900 -18.432300 4.182500 -3.675600 22.993000 2.513100 -1.993000 10.715300 -0.000000 0.000000 0.000000 -88.947600 -1.513600 22.383200 19.878900 -30.496100 -5.469700 -0.000000 -0.000000 4.515000 18.780000 25.847400 8.432600 -7.125000 0.000000 -0.000000 -12.116200 56.665300 -3.500100 -0.000000 0.000000 0.000000 87.335400 -1.161700 5.769900 -13.967300 22.688000 -2.815500 0.000000 0.000000 11.712600 -13.354000 11.069800 -2.609700 7.125000 -0.000000 -0.000000 9.664200 -18.698800 6.143600
-8.333700 17.406000 4.968700 2.357100 4.565200 -0.039600 0.000000 0.000000 0.000000 -28.759800 -4.465500 -1.666800 1.687600 8.182700 23.270300 0.173200 -15.303200 -12.540700 0.259200 3.275200 9.045900 0.000000 0.000000 0.000000 10.051500 13.476200 -22.483800 -1.585000 -7.942100 22.538400 0.037900 -3.768600 -2.986100 -0.030400 1.124800 -3.092200 -5.360700 -0.931700 6.329700 1.722300 -1.579000 -0.236800 4.956100 -0.669800 -3.607500 -9.516300 -3.850100 -18.062000 4.477400 -3.744600 22.560400 2.648900 -2.008000 10.502600 -0.000000 -0.000000 0.000000 -88.879500 -1.623800 22.503300 20.133200 -30.802400 -5.599400 -0.000000 -0.000000 4.001000 18.256200 26.964300 8.506900 -7.125000 0.000000 -0.000000 -13.263500 57.663000 -4.160500 -0.000000 -0.000000 0.000000 87.252100 -1.090300 5.813300 -13.759400 22.389700 -2.735800 0.000000 0.000000 11.170100 -12.568600 8.898500 -1.975200 7.125000 -0.000000 -0.000000 10.296900 -20.927900 6.036200
-8.330900 17.405700 5.080500 2.373700 4.757400 0.006700 0.000000 0.000000 0.000000 -28.786700 -4.353800 -1.138300 1.647500 8.089600 22.986600 0.180400 -15.486400 -12.720500 0.264800 3.310300 9.143800 0.000000 0.000000 0.000000 9.590900 14.217500 -22.214100 -1.385100 -7.446600 21.045400 0.034200 -3.403400 -2.208300 -0.034500 1.198600 -3.295300 -5.429900 -0.876200 6.394800 1.714500 -1.513500 -0.206100 4.982900 -0.636300 -3.618900 -9.527500 -3.953600 -18.271300 4.494300 -3.869300 22.584900 2.636700 -2.061600 10.562100 0.000000 -0.000000 0.000000 -88.856200 -1.806800 22.400200 20.479100 -31.215300 -5.777600 -0.000000 -0.000000 3.156700 17.831000 28.087400 8.611700 -7.125000 0.000000 -0.000000 -14.371800 58.673900 -4.868700 0.000000 -0.000000 0.000000 87.235300 -1.029800 5.638500 -13.651000 22.233600 -2.694600 0.000000 0.000000 11.096900 -12.221600 8.638300 -1.863300 7.125000 -0.000000 -0.000000 10.557300 -21.203700 6.127000
-8.325000 17.399100 5.188100 2.429900 4.842000 0.062000 0.000000 0.000000 0.000000 -28.854800 -4.078200 -0.735200 1.611200 8.004400 22.727400 0.172500 -15.661900 -12.749600 0.255200 3.250100 8.975900 0.000000 0.000000 0.000000 9.249800 14.552600 -22.080700 -1.235600 -7.049100 19.860900 0.021900 -2.665900 -1.484700 -0.140800 2.417900 -6.662100 -5.436300 -0.779500 6.510000 1.637900 -1.394300 -0.223900 4.899100 -0.573700 -3.718900 -9.527900 -4.065300 -18.250100 4.532300 -4.036400 22.504500 2.624800 -2.132400 10.542900 -0.000000 -0.000000 0.000000 -88.812200 -1.848600 22.335500 20.874000 -31.681000 -5.983600 -0.000000 -0.000000 2.769600 17.980700 28.389900 8.772200 -7.125000 0.000000 -0.000000 -14.398600 59.003900 -4.992400 -0.000000 -0.000000 0.000000 87.299300 -1.029300 5.385200 -13.621900 22.191600 -2.683600 0.000000 0.000000 11.738600 -12.332100 8.784600 -1.912300 7.125000 -0.000000 -0.000000 10.471100 -21.052300 6.111800
-8.320500 17.391700 5.302800 2.373500 4.961200 0.052200 0.000000 0.000000 0.000000 -28.832600 -4.053000 -0.184300 1.584000 7.939900 22.531600 0.174600 -15.571900 -12.715800 0.254400 3.245500 8.962900 0.000000 0.000000 0.000000 9.233300 14.453300 -21.886000 -1.124400 -6.735400 18.933900 0.006700 -1.460500 -0.692200 -0.440900 4.260600 -11.810900 -5.420100 -0.641900 5.652800 1.629600 -1.151500 0.449800 4.828900 -0.506900 -2.566700 -9.524200 -4.195900 -18.356100 4.564700 -4.198500 21.793900 2.603000 -2.190500 10.318000 -0.000000 -0.000000 0.000000 -88.766900 -2.973600 22.523700 21.030900 -31.864400 -6.066300 -0.000000 -0.000000 2.653200 18.158700 27.931200 8.734100 -7.125000 0.000000 -0.000000 -13.927500 58.594200 -4.687600 -0.000000 -0.000000 0.000000 87.266500 0.152600 4.968400 -13.525500 22.052300 -2.647300 0.000000 0.000000 12.490100 -12.033400 7.813100 -1.659900 7.125000 -0.000000 -0.000000 10.735900 -22.039300 6.026800
